<?xml version="1.0" standalone="no"?>
<!DOCTYPE svg PUBLIC "-//W3C//DTD SVG 20010904//EN"
 "http://www.w3.org/TR/2001/REC-SVG-20010904/DTD/svg10.dtd">
<svg version="1.0" xmlns="http://www.w3.org/2000/svg"
 width="500.000000pt" height="500.000000pt" viewBox="0 0 500.000000 500.000000"
 preserveAspectRatio="xMidYMid meet">

<g transform="translate(0.000000,500.000000) scale(0.100000,-0.100000)"
fill="#00aaff" stroke="none">
<path d="M955 4358 c-46 -25 -106 -100 -91 -115 6 -6 235 -101 381 -158 61
-23 313 -124 560 -225 248 -100 475 -191 505 -201 30 -11 150 -59 265 -107
175 -72 217 -93 251 -127 78 -78 74 -21 74 -1082 l0 -943 473 0 472 0 51 30
c41 23 58 41 78 82 l26 52 0 645 c0 388 -4 660 -10 681 -19 70 -61 105 -178
150 -147 58 -174 73 -206 114 -57 75 -56 65 -56 588 0 548 1 538 -81 597 l-42
31 -1226 0 c-877 -1 -1232 -4 -1246 -12z"/>
<path d="M850 2776 l0 -1415 43 19 c41 19 75 20 1000 20 l957 0 -2 953 c-3
907 -4 954 -22 987 -10 19 -27 45 -38 56 -20 22 -255 120 -973 406 -82 33
-242 97 -355 143 -113 46 -279 112 -370 148 -91 36 -182 72 -202 81 l-38 16 0
-1414z"/>
<path d="M898 1330 c-39 -30 -53 -73 -40 -119 7 -21 20 -45 30 -54 17 -16 392
-172 522 -218 30 -11 161 -62 290 -113 129 -52 330 -131 445 -176 116 -46 228
-91 250 -100 22 -10 65 -25 95 -35 30 -10 90 -33 133 -52 87 -36 140 -42 176
-17 49 35 51 53 51 494 l0 410 -964 0 c-943 0 -964 0 -988 -20z"/>
</g>
</svg>
